<?xml version="1.0" encoding="UTF-8"?>
<svg xmlns="http://www.w3.org/2000/svg" xmlns:xlink="http://www.w3.org/1999/xlink" version="1.2" >
<font id="Charlemagne Bold">
<font-face  font-family="Charlemagne Bold" units-per-em="4096" ascent="3232" descent="-1008" font-style="normal" font-weight="700" font-stretch="normal" cap-height="3072" x-height="2048" underline-position="-100" underline-thickness="50" />
<missing-glyph  horiz-adv-x="3072" d="M512 0 L512 2560 L2560 2560 L2560 0 L512 0 Z M2494 66 L2494 2494 L578 2494 L578 66 L2494 66 Z " />
<glyph glyph-name="grave" unicode="&#x60;" horiz-adv-x="3760" d="M1151 3482 Q1204 3588 1249 3674 Q1290 3760 1303 3801 Q1331 3777 1704 3539 Q2077 3301 2122 3281 L2073 3154 Q1266 3482 1159 3482 Q1155 3482 1151 3482 Z " />
<glyph glyph-name="one" unicode="1" horiz-adv-x="1896" d="M1282 2978 Q1241 2679 1225 1249 Q1241 209 1257 135 Q1364 115 1544 98 Q1720 78 1831 66 L1847 -16 Q1618 -8 1446 -4 Q1270 -4 1065 0 Q229 -16 86 -16 L102 66 Q279 82 496 106 Q713 127 762 127 Q774 225 774 1098 Q774 2478 762 2601 Q561 2601 111 2511 Q90 2552 82 2601 Q643 2761 1282 2978 Z " />
<glyph glyph-name="two" unicode="2" horiz-adv-x="2367" d="M225 2130 Q303 2630 311 3166 L410 3138 Q434 2888 438 2879 Q434 2879 434 2879 Q434 2884 578 2904 Q741 2929 897 2929 Q1208 2929 1470 2830 Q1733 2732 1855 2478 Q1946 2302 1946 2089 Q1946 1782 1761 1470 Q1577 1159 1331 913 Q1085 668 884.5 512 Q684 356 594 295 L594 279 Q1683 303 1888 446 Q1954 647 1991 848 L2089 864 Q2081 778 2023 336 Q1966 -106 1954 -328 L1864 -303 Q1860 -258 1860 -221 Q1855 -184 1851 -119 Q1843 -53 1839 -16 Q1151 0 639 0 L-25 0 Q176 152 459 369 Q741 582 967 819 Q1192 1057 1327 1323 Q1462 1585 1462 1896 Q1462 2236 1282 2494 Q1102 2753 774 2753 Q512 2753 418 2642 Q414 2621 393 2511 Q369 2396 352 2298 Q332 2200 319 2142 L225 2130 Z " />
<glyph glyph-name="three" unicode="3" horiz-adv-x="2376" d="M426 3158 L512 3138 Q512 2888 520 2879 Q524 2879 1118 2863 Q1536 2871 1720 2871 Q1901 2871 2073 2871 Q1495 2245 1167 1855 Q2097 1614 2097 1016 Q2097 680 1901 434 Q1700 188 1389 57 Q1073 -74 754 -74 Q557 -74 385 -25 Q360 -61 344 -131 Q328 -201 328 -201 L233 -217 Q250 -164 279 160 Q303 479 303 721 Q389 688 393 680 Q393 561 401 463 Q410 365 410 336 Q586 98 930 86 Q1229 98 1438 295 Q1647 492 1647 782 Q1647 963 1556 1122 Q1466 1278 1265.5 1405 Q1065 1532 737 1610 Q1286 2204 1561 2544 Q1503 2544 1462 2535 L1049 2535 Q618 2535 504 2486 Q471 2454 430 2216 L336 2191 Q352 2257 381 2552 Q406 2843 426 3158 Z " />
<glyph glyph-name="four" unicode="4" horiz-adv-x="2609" d="M-57 856 Q-45 868 193 1135 Q426 1401 741 1757 Q1053 2114 1364 2466 Q1671 2818 1905 3080 Q1864 2662 1864 1110 Q1896 1114 2007 1126 Q2114 1135 2208 1159 Q2298 1180 2310 1208 Q2327 1274 2359 1401 Q2388 1528 2400 1618 L2494 1622 Q2462 1413 2441 1147 Q2417 877 2408 664 Q2417 614 2417 553 L2318 569 Q2318 668 2298 840 Q2200 856 1864 856 Q1864 213 1888 127 Q1987 111 2154 90 Q2318 70 2327 66 L2351 -25 Q2310 -16 1577 0 Q856 -16 831 -25 L848 66 Q1077 90 1208 102 Q1339 115 1450 127 Q1450 127 1458 467 Q1466 807 1470 856 L-57 856 Z M393 1118 L1462 1118 L1462 2343 Q692 1491 393 1118 Z " />
<glyph glyph-name="five" unicode="5" horiz-adv-x="2359" d="M393 1720 L512 2863 L672 2863 Q803 2867 1110 2871 Q1417 2871 1605.5 2883.5 Q1794 2896 1855 2937 Q1913 3117 1921 3158 L2015 3166 Q1962 2896 1925 2593 Q1888 2286 1880 2130 L1786 2159 L1786 2417 L1786 2503 Q1696 2535 1057 2535 Q872 2544 655 2544 Q623 2417 578 2040 Q1323 1946 1675 1675 Q2023 1405 2023 1040 Q2023 799 1908.5 594 Q1794 389 1597 238 Q1401 86 1167 12 Q930 -66 705 -66 Q528 -66 303 -25 Q258 -164 250 -201 L160 -217 Q180 -188 209 180 Q225 455 229 618 Q229 676 225 721 L319 688 Q319 573 336 336 Q475 98 840 86 Q1151 94 1360 295 Q1569 496 1569 807 Q1569 1057 1417 1245 Q1262 1434 991 1556 Q717 1675 393 1720 Z " />
<glyph glyph-name="six" unicode="6" horiz-adv-x="2585" d="M1696 3056 L1921 3064 Q1487 2712 1217 2343 Q942 1974 831 1614 Q733 1303 733 987 Q733 930 737 872 Q754 504 938 299 Q1118 90 1352 82 Q1503 82 1630 168 Q1753 254 1823 422 Q1872 541 1872 680 Q1872 733 1864 791 Q1835 1065 1683 1286 Q1532 1503 1098 1552 L1151 1647 Q1294 1663 1421 1663 Q1798 1667 2028 1499 Q2327 1274 2327 905 Q2327 623 2171 401 Q2015 176 1761 57 Q1507 -66 1225 -66 Q786 -66 500 213 Q254 446 254 893 Q254 975 262 1065 Q311 1528 659 2064 Q1008 2597 1696 3056 Z " />
<glyph glyph-name="seven" unicode="7" horiz-adv-x="2191" d="M201 2007 Q201 1999 201 1999 Q205 1999 254 2425 Q303 2896 303 3166 L401 3154 Q401 3027 418 2896 Q492 2888 647 2884 Q799 2875 1028 2871 Q1257 2867 1454 2863 Q1855 2871 2208 2871 Q1253 995 1081 127 Q1192 106 1294 94 Q1397 82 1495 66 L1511 -25 Q1458 -16 782 0 Q635 -4 508 -4 Q381 -8 225 -16 L250 66 Q614 123 623 127 Q786 524 1101.5 1142.5 Q1417 1761 1815 2503 L1393 2503 Q594 2503 401 2441 Q373 2388 336 2216 Q299 2044 295 2040 L201 2007 Z " />
<glyph glyph-name="eight" unicode="8" horiz-adv-x="2519" d="M942 1495 Q639 1638 492 1831 Q352 2015 352 2216 Q352 2228 352 2241 Q365 2507 606 2707 Q848 2908 1249 2937 Q1303 2941 1352 2941 Q1552 2941 1716 2888 Q1917 2818 2032 2695 Q2146 2568 2159 2417 Q2163 2392 2163 2367 Q2163 2171 2015 1978 Q1847 1761 1503 1630 Q1888 1479 2077 1253 Q2265 1028 2265 774 Q2265 557 2138 373 Q2007 188 1781.5 65.5 Q1556 -57 1286 -74 Q1245 -74 1204 -74 Q918 -74 709 4 Q471 94 348 258 Q225 422 217 631 Q225 877 410 1114 Q594 1348 942 1495 Z M1343 1704 Q1536 1786 1638 1950 Q1737 2114 1737 2290 Q1737 2429 1683 2540 Q1630 2650 1523.5 2719.5 Q1417 2789 1249 2793 Q1237 2793 1225 2793 Q1028 2793 889 2675 Q741 2544 737 2343 Q745 2171 893 2003 Q1040 1831 1343 1704 Z M1049 1425 Q672 1163 655 713 Q664 455 827 270 Q987 82 1257 82 Q1528 82 1671 238 Q1815 389 1815 606 Q1815 946 1561 1126 Q1470 1204 1298 1298 Q1122 1389 1049 1425 Z " />
<glyph glyph-name="nine" unicode="9" horiz-adv-x="2585" d="M1417 1274 Q1380 1237 1110 1225 Q762 1233 500 1405 Q233 1573 233 1991 Q233 2249 463 2564 Q688 2875 1167 2929 Q1274 2941 1372 2941 Q1831 2941 2048 2683 Q2310 2372 2310 1974 Q2245 946 1032 -160 Q1008 -160 963 -160 Q918 -164 856 -168 L807 -168 Q1245 283 1524 807 Q1798 1327 1798 1855 Q1798 2302 1626 2544 Q1454 2777 1192 2777 Q1184 2777 1176 2777 Q971 2765 835.5 2605 Q700 2445 688 2200 Q684 2167 684 2134 Q684 1835 848 1610 Q1028 1356 1425 1352 Q1450 1360 1470 1360 L1417 1274 Z " />
<glyph glyph-name="zero" unicode="0" horiz-adv-x="2769" d="M1319 -66 Q725 -33 479 376.5 Q233 786 225 1319 Q225 1331 225 1343 Q225 1737 369 2101 Q512 2470 782 2699 Q1049 2925 1393 2937 Q1425 2937 1454 2937 Q1786 2937 2019 2773 Q2273 2589 2400 2302 Q2523 2011 2544 1696 Q2548 1622 2548 1552 Q2548 1163 2417 819 Q2261 410 1978 172 Q1692 -66 1360 -66 L1319 -66 Z M1335 2785 Q967 2785 819 2335 Q684 1937 684 1589 Q684 1540 688 1495 Q717 811 930 451 Q1135 94 1434 94 Q1442 94 1450 94 Q1786 106 1937 492 Q2089 877 2089 1311 Q2089 1634 2015 1974 Q1937 2314 1769 2552 Q1602 2785 1335 2785 Z " />
<glyph glyph-name="hyphen" unicode="&#x2d;" horiz-adv-x="1839" d="M287 1303 L319 1638 L1561 1638 L1503 1442 Q1208 1438 803 1389 Q397 1335 287 1303 Z " />
<glyph glyph-name="equal" unicode="&#x3d;" d="" />
<glyph glyph-name="q" unicode="q" horiz-adv-x="3871" d="M2281 -33 Q2028 -66 1806 -66 Q1343 -66 1032 82 Q569 303 393 659 Q217 1012 209 1360 Q217 1376 217 1401 Q229 1786 426 2130 Q618 2474 995 2691 Q1368 2908 1880 2937 Q1942 2941 1999 2941 Q2351 2941 2638 2855 Q2970 2757 3195 2564 Q3420 2372 3535 2114 Q3650 1851 3650 1552 Q3650 1397 3609 1200 Q3547 922 3412 717 Q3277 508 3129 385 Q2978 262 2810 152 Q2937 -33 3162 -254 Q3387 -475 3658 -700 Q3924 -930 3936 -930 L3842 -967 Q3723 -954 3162 -623 Q2597 -295 2281 -33 Z M1585 2761 Q1143 2679 913 2327 Q680 1970 672 1561 Q688 1446 688 1409 Q762 881 1094 545 Q1421 205 1786 119 Q1860 102 2040 86 Q2359 94 2630 258 Q2896 422 3047 758 Q3162 1016 3162 1368 Q3162 1466 3154 1569 Q3138 1790 3011 2032 Q2884 2269 2675 2458 Q2462 2642 2183 2732 Q2015 2785 1835 2785 Q1712 2785 1585 2761 Z " />
<glyph glyph-name="w" unicode="w" horiz-adv-x="4321" d="M-94 2802 L-111 2879 Q16 2875 131 2875 Q242 2871 446 2863 Q1102 2879 1151 2879 L1126 2802 Q1110 2793 754 2744 Q819 2494 909 2154 Q995 1815 1102 1417 Q1208 1020 1327 647 L1335 647 Q1544 1151 1769 1753 Q1995 2351 2064 2634 Q1995 2646 1925 2658 Q1855 2666 1663 2695 L1647 2785 Q1778 2781 1892 2781 Q2003 2777 2191 2769 Q2437 2777 2560 2781 Q2679 2781 2818 2785 L2802 2695 Q2564 2662 2474 2634 L3215 614 L3232 623 Q3232 618 3232 618 Q3248 618 3502 1516 Q3768 2474 3793 2744 Q3748 2753 3604 2773 Q3457 2793 3408 2802 L3391 2879 Q3539 2875 3662 2875 Q3781 2871 3944 2863 Q4157 2871 4252 2875 Q4342 2875 4456 2879 L4448 2802 Q4325 2789 4182 2736 Q4129 2679 3805 1757 Q3478 831 3129 -217 Q3015 57 2839 487 Q2662 918 2572 1147 Q2478 1376 2359 1688 Q2236 1999 2142 2232 Q2114 2130 1974 1774 Q1831 1417 1712 1114 Q1589 811 1384 311 Q1180 -188 1167 -217 Q1085 -33 892.5 610 Q700 1253 524 1830.5 Q348 2408 209 2744 Q86 2769 -94 2802 Z " />
<glyph glyph-name="e" unicode="e" horiz-adv-x="2609" d="M639 2736 Q516 2765 209 2802 L193 2879 Q401 2875 582 2875 Q762 2871 1081 2863 Q2073 2879 2130 2896 Q2134 2900 2146 2978 Q2154 3056 2159 3088 L2257 3105 Q2236 2970 2208 2613 Q2175 2257 2167 2249 Q2171 2253 2175 2257 L2089 2290 L2089 2576 Q2056 2650 1729 2703 Q1401 2753 1159 2753 Q1155 2621 1151 2433 Q1143 2241 1139 2048 Q1135 1851 1135 1577 Q1839 1597 1982 1647 Q2015 1741 2023 1823 L2114 1831 Q2101 1778 2052 1430 Q1999 1081 1999 1065 L1921 1098 Q1921 1098 1921 1098 Q1925 1098 1929 1122 Q1929 1151 1933 1200 Q1933 1249 1937 1307 Q1937 1360 1937 1368 Q1753 1462 1135 1462 Q1135 1376 1126 1311 Q1130 1122 1147 741 Q1159 356 1159 111 Q1933 123 2142 258 Q2171 332 2232 614 L2327 639 Q2216 45 2191 -303 L2105 -287 L2105 -41 Q2068 -29 1774 -16 Q1475 -8 913 0 Q344 -16 193 -25 L217 66 Q492 86 639 119 Q664 1225 664 1610 Q664 2232 639 2736 Z " />
<glyph glyph-name="r" unicode="r" horiz-adv-x="3064" d="M1118 1450 Q1135 1450 1151 1450 Q1466 1450 1745 1581 Q2036 1720 2089 2105 Q2093 2130 2093 2154 Q2093 2367 1901 2560 Q1688 2769 1151 2769 L1135 2769 Q1135 2503 1126 2085 Q1118 1667 1118 1450 Z M1118 1319 Q1118 680 1143 127 Q1184 111 1372 90 Q1561 70 1577 66 L1593 -16 Q1454 -8 1315 -4 Q1171 -4 1008 0 Q233 -16 193 -25 L209 74 Q307 74 463 98 Q614 119 639 127 Q655 373 655 1417 Q655 2474 639 2744 Q512 2765 201 2793 L193 2871 Q426 2875 631 2879 Q836 2879 1167 2879 L1368 2879 Q1384 2879 1401 2879 Q2560 2879 2585 2298 Q2585 2085 2388 1851 Q2191 1618 1999 1520 Q2232 1118 2589 606 Q2941 94 3138 -102 L2961 -135 Q2630 61 1511 1343 Q1303 1319 1118 1319 Z " />
<glyph glyph-name="t" unicode="t" horiz-adv-x="3056" d="M41 2114 Q94 2683 94 3154 Q176 3138 193 3138 Q209 2896 217 2863 Q348 2855 504 2851 Q659 2843 848 2839 Q1036 2830 1184 2830 Q1331 2826 1503 2822 Q2527 2839 2912 2863 Q2912 2867 2937 2961 Q2961 3052 2970 3121 Q2970 3121 3015 3129 Q3056 3138 3072 3138 Q3043 2970 3006 2666 Q2970 2359 2937 2081 Q2888 2105 2847 2105 Q2851 2183 2855 2249 Q2855 2310 2855 2433 L2855 2519 Q2793 2589 2417 2646 Q2085 2695 1851 2695 Q1819 2695 1786 2695 Q1778 2634 1761 1671 Q1778 201 1786 127 Q2114 86 2310 74 L2327 -16 Q2220 0 1602 0 Q1049 0 729 -16 L754 66 Q860 78 909 86 Q958 90 1094 106 Q1229 119 1274 127 Q1294 893 1294 1528 Q1294 2339 1274 2695 Q483 2695 217 2527 Q197 2494 168 2335 Q135 2171 127 2142 Q127 2142 86 2130 Q45 2118 41 2114 Z " />
<glyph glyph-name="y" unicode="y" horiz-adv-x="2679" d="M160 2744 Q-37 2793 -127 2793 L-143 2879 Q-4 2875 119 2875 Q242 2871 438 2863 Q1073 2879 1126 2888 L1110 2802 Q1077 2793 754 2744 Q1118 2142 1544 1503 Q1679 1696 1957.5 2158.5 Q2236 2621 2257 2744 Q2208 2748 2118 2769 Q2028 2785 1937 2802 L1921 2879 Q2036 2875 2138 2875 Q2236 2871 2400 2863 Q2908 2879 2937 2879 L2920 2802 Q2830 2789 2646 2744 Q2568 2699 2158.5 2121.5 Q1749 1544 1647 1335 Q1647 1335 1647 1335 Q1647 1335 1630 938 Q1651 160 1663 119 Q1958 82 2056 66 L2064 -16 Q1950 -16 1311 0 Q1167 -4 1044 -4 Q918 -8 770 -16 L782 66 Q1126 111 1151 127 Q1167 225 1167 840 Q1167 1040 1167 1126 Q1163 1208 1159 1294 Q1159 1339 778 1900.5 Q397 2462 160 2744 Z " />
<glyph glyph-name="u" unicode="u" horiz-adv-x="3510" d="M512 2744 Q496 2748 373 2773 Q250 2793 193 2802 L176 2879 Q315 2875 434 2875 Q553 2871 774 2863 Q1053 2871 1188 2875 Q1323 2875 1479 2879 L1454 2802 Q1405 2793 1286 2781 Q1167 2765 1094 2753 Q1024 2740 1024 2736 Q1024 2736 1024 2736 Q1008 2212 1008 1966 Q1012 1782 1016 1630 Q1016 1479 1016 1233 Q1016 86 1847 86 Q1855 86 1864 86 Q2294 90 2482 360 Q2666 627 2679 1118 Q2687 1319 2687 1720 Q2687 2191 2662 2744 Q2593 2753 2478 2769 Q2359 2785 2224 2793 L2191 2879 Q2322 2879 2400 2875 Q2478 2871 2597 2867 Q2716 2863 2888 2855 Q3207 2871 3351 2879 L3330 2793 Q3076 2753 3039 2736 Q3035 2650 3035 2580 Q3031 2507 3023 2335 L3023 1622 Q3023 1249 3015 1081 Q2990 594 2699 282.5 Q2408 -29 1896 -66 Q1839 -70 1782 -70 Q1298 -70 946 184 Q553 467 537 1081 Q537 1630 528 1864 Q528 2642 512 2744 Z " />
<glyph glyph-name="i" unicode="i" horiz-adv-x="1798" d="M217 2802 L193 2879 Q311 2879 406 2875 Q496 2871 651 2867 Q803 2863 1032 2855 Q1421 2871 1610 2879 L1585 2793 Q1585 2793 1151 2736 Q1143 2666 1126 1729 Q1130 1479 1134.5 1229 Q1139 979 1143 770 Q1143 557 1147 381 Q1151 201 1151 127 Q1229 111 1397 90 Q1561 66 1585 66 L1610 -16 Q1552 -12 1413 -8 Q1274 -8 1110 -4 Q946 -4 848 0 Q754 -4 610 -4 Q463 -8 344 -8 Q225 -12 193 -16 L209 66 Q233 70 279 74 Q319 78 463 98 Q606 119 647 127 Q664 414 664 1319 Q664 2146 647 2736 Q602 2753 217 2802 Z " />
<glyph glyph-name="o" unicode="o" horiz-adv-x="3879" d="M1577 2744 Q1348 2691 1180 2572 Q1008 2449 905 2298 Q803 2142 754 1958 Q705 1769 696 1569 Q705 1495 709 1450 Q709 1405 713 1352 Q786 844 1110 524 Q1430 201 1823 119 Q1876 115 1917 111 Q1958 102 2023 94 Q2314 94 2576 238 Q2834 377 2994 647 Q3154 913 3154 1274 Q3154 1556 3064 1818.5 Q2974 2081 2802 2302 Q2630 2523 2396 2650 Q2159 2777 1872 2777 Q1704 2777 1577 2744 Z M1847 2929 Q1966 2941 2081 2941 Q2359 2941 2593 2875 Q2925 2785 3162 2601 Q3396 2413 3523 2150 Q3650 1888 3650 1561 Q3650 1335 3609 1176 Q3527 827 3305 549 Q3080 270 2728 106 Q2376 -57 1937 -74 Q1896 -74 1860 -74 Q1315 -74 950 139 Q561 369 389 696 Q217 1024 209 1335 Q217 1360 217 1393 Q238 1782 422 2118 Q602 2449 967 2666 Q1331 2884 1847 2929 Z " />
<glyph glyph-name="p" unicode="p" horiz-adv-x="2617" d="M193 2888 L1135 2888 Q1171 2888 1204 2888 Q1847 2888 2159 2744 Q2482 2593 2494 2265 Q2494 2245 2494 2224 Q2494 1835 2175 1573 Q1839 1298 1352 1217 L1368 1319 Q1753 1409 1880 1650.5 Q2007 1892 2007 2122 Q2007 2277 1937 2429 Q1868 2576 1675 2683 Q1507 2773 1233 2773 Q1188 2773 1143 2769 Q1130 2109 1118 1241 Q1126 872 1135 639 Q1139 406 1143 127 Q1610 78 1663 74 L1688 -16 Q1458 -8 1266 -4 Q1073 -4 848 0 Q676 -4 528 -4 Q381 -8 193 -16 L217 74 Q471 98 647 127 Q647 397 651 569 Q655 741 659 913 Q659 1085 664 1298 Q664 1507 664 1786 Q664 2433 647 2744 Q471 2785 209 2802 L193 2888 Z " />
<glyph glyph-name="bracketleft" unicode="&#x5b;" horiz-adv-x="1434" d="M393 3166 L1266 3191 L1249 3088 L774 3047 Q766 2793 766 2671 Q762 2544 754 2232 Q762 1982 762 1352 Q762 823 754 586 Q766 -188 782 -352 Q991 -377 1274 -410 L1241 -520 Q1065 -512 876.5 -504 Q688 -496 393 -487 Q401 -352 401 193 L401 1434 Q401 2290 401 2617 Q397 2945 393 3166 Z " />
<glyph glyph-name="bracketright" unicode="&#x5d;" horiz-adv-x="1434" d="M1040 3166 Q1036 2949 1032 2466 Q1024 1978 1024 1450 Q1024 -217 1040 -487 Q745 -496 561 -504 Q373 -512 193 -520 L160 -410 Q512 -369 647 -352 Q664 -254 668 -131 Q672 -8 676 205 Q676 418 676 729 Q676 1040 680 1352 Q680 2064 676 2400 Q668 2732 647 3047 L184 3088 L160 3191 L1040 3166 Z " />
<glyph glyph-name="backslash" unicode="&#x5c;" d="" />
<glyph glyph-name="a" unicode="a" horiz-adv-x="2920" d="M-233 -25 L-217 66 Q-201 70 -45 94 Q111 119 135 127 Q172 172 397 741 Q618 1307 848 1917 Q1077 2523 1159 2744 Q1130 2773 840 2802 L831 2888 Q909 2884 1044 2879 Q1180 2871 1425 2863 Q1946 2879 2064 2888 L2056 2802 Q1782 2761 1745 2744 Q1892 2277 2093 1724 Q2294 1167 2478 704.5 Q2662 242 2736 127 Q2740 123 2908 98 Q3072 74 3088 74 L3105 -16 Q3105 -16 3105 -16 Q3105 -16 2400 0 Q2310 -4 2163 -4 Q2015 -8 1892 -8 Q1769 -12 1729 -16 L1753 74 Q1888 78 2032 102 Q2167 127 2167 127 Q2167 127 2167 127 Q2150 193 1966 721 Q1778 1245 1737 1327 Q1311 1327 791 1282 Q750 1192 623 684 Q504 209 504 135 Q504 131 504 127 Q668 74 848 74 L872 -16 Q676 0 328 0 Q-147 0 -233 -25 Z M840 1470 Q918 1466 1225 1462 Q1528 1454 1704 1450 Q1704 1450 1704 1450 Q1704 1466 1614 1733 Q1520 2011 1425 2286 Q1327 2556 1286 2679 L1282 2679 Q1266 2642 1208 2482 Q1151 2322 1069 2101 Q987 1880 921.5 1695.5 Q856 1511 840 1470 Z " />
<glyph glyph-name="s" unicode="s" horiz-adv-x="2265" d="M1896 2081 L1798 2122 Q1798 2281 1786 2433 Q1708 2621 1556 2712 Q1405 2802 1225 2802 Q1040 2802 905 2707 Q770 2609 745 2449 Q741 2413 741 2380 Q741 2228 852 2130 Q983 2007 1323 1798 Q1659 1585 1835 1380 Q2007 1171 2007 831 L2007 713 Q1974 315 1675 127 Q1376 -66 975 -66 Q705 -66 438 33 Q426 0 352 -393 L258 -418 Q279 -319 315 86 Q340 377 340 676 Q340 791 336 905 L430 881 Q430 856 426 831 Q430 713 455 528 Q545 311 725 192.5 Q905 74 1106 66 Q1331 78 1503 221 Q1671 365 1671 586 Q1671 967 1151 1257 Q426 1675 426 2195 Q426 2216 426 2241 Q434 2531 655 2732 Q877 2929 1294 2929 Q1536 2929 1823 2855 Q1855 2974 1896 3191 L1991 3199 Q1896 2445 1896 2081 Z " />
<glyph glyph-name="d" unicode="d" horiz-adv-x="3846" d="M1167 2703 Q1139 1954 1126 1282 Q1143 561 1159 225 Q1368 156 1638 143 Q2281 152 2748 569 Q3146 926 3146 1454 Q3146 1540 3138 1630 Q3105 1901 2990 2101 Q2871 2302 2671 2445 Q2470 2585 2195 2658 Q1921 2728 1585 2728 Q1384 2728 1167 2703 Z M639 2736 Q573 2761 201 2802 L193 2879 Q340 2875 463 2875 Q582 2871 754 2863 Q1008 2867 1212 2871 Q1417 2871 1720 2871 L2134 2871 Q2585 2871 2937 2712 Q3285 2552 3473 2277 Q3658 1999 3658 1679 Q3658 1159 3359 782 Q3060 406 2584.5 209 Q2109 12 1593 -8 Q537 -8 193 -16 L209 66 Q483 94 647 127 Q664 782 664 1376 Q664 1815 659 2048 Q655 2281 639 2736 Z " />
<glyph glyph-name="f" unicode="f" horiz-adv-x="2609" d="M647 2744 Q475 2773 217 2802 L193 2879 Q193 2879 193 2879 Q193 2879 1200 2863 Q2179 2879 2216 2888 Q2224 2920 2249 3043 Q2269 3166 2273 3174 L2359 3199 Q2335 3088 2314 2699 Q2290 2306 2290 2191 L2191 2224 Q2191 2486 2175 2552 Q2109 2634 1749 2691 Q1389 2744 1167 2744 Q1139 2486 1126 1778 Q1135 1696 1135 1552 Q1806 1552 1999 1618 L2056 1855 L2142 1864 Q2122 1696 2101 1380 Q2081 1065 2081 950 L1991 975 Q1991 1061 1966 1319 Q1942 1348 1786 1376 Q1626 1405 1446 1417 Q1311 1425 1204 1425 Q1167 1425 1135 1425 Q1135 496 1167 119 Q1200 115 1303 102 Q1405 90 1479 82 Q1548 70 1618 66 L1630 -25 Q1630 -25 1630 -25 Q1630 -25 1008 -8 Q889 -12 700 -12 Q512 -16 365 -16 Q217 -20 193 -25 L209 66 Q209 70 418 90 Q623 111 647 127 Q664 1413 664 1520 Q664 1753 647 2744 Z " />
<glyph glyph-name="g" unicode="g" horiz-adv-x="3703" d="M2249 1266 Q2388 1266 2986 1249 Q3428 1266 3559 1266 L3543 1184 Q3400 1176 3183 1135 Q3174 1102 3158 664 Q3174 106 3174 66 Q2548 -74 2081 -74 Q1458 -74 1040 135 Q618 340 426 668 Q233 991 225 1368 Q225 1389 225 1409 Q225 1741 397 2081 Q582 2441 1012 2687 Q1442 2929 2105 2929 Q2507 2929 2998 2830 Q3072 3183 3072 3207 L3166 3232 Q3150 3125 3129 2773 Q3109 2421 3105 2159 Q3113 2089 3113 1966 L3015 2015 Q3015 2175 2970 2384 Q2867 2511 2707 2601 Q2548 2691 2359 2740 Q2167 2785 1954 2785 Q1401 2785 1098 2486 Q725 2142 713 1618 Q717 1217 918 864 Q1114 512 1450 299 Q1782 86 2175 74 Q2372 78 2552 131 Q2695 172 2695 180 Q2695 184 2687 184 Q2703 389 2703 655 Q2703 930 2687 1135 Q2642 1139 2486 1159 Q2327 1176 2273 1184 L2249 1266 Z " />
<glyph glyph-name="h" unicode="h" horiz-adv-x="3969" d="M225 2793 L193 2888 Q274 2888 360 2883.5 Q446 2879 537 2879 Q623 2875 713 2871 Q803 2867 889 2863 Q1491 2879 1585 2888 L1561 2802 Q1470 2793 1318.5 2764.5 Q1167 2736 1159 2736 Q1135 2331 1135 1593 L1360 1593 L1647 1593 L2200 1593 Q2408 1602 2830 1602 L2830 2032 Q2830 2425 2810 2744 Q2703 2761 2621 2777 Q2540 2789 2408 2802 L2384 2888 Q2417 2879 3056 2863 Q3359 2871 3494 2875 Q3629 2875 3768 2879 L3744 2802 Q3621 2781 3330 2744 Q3314 2421 3297 1409 Q3305 979 3314 705 Q3318 430 3326 266 Q3330 123 3334 123 Q3334 123 3334 127 Q3437 102 3559 90 Q3682 78 3752 66 L3777 -16 Q3723 -12 3588 -8 Q3453 -8 3297 -4 Q3138 -4 3039 0 Q2867 -4 2720 -4 Q2572 -8 2384 -16 L2408 66 Q2712 102 2810 127 Q2830 295 2830 1454 Q2687 1454 1929 1417 Q1171 1376 1126 1360 Q1130 1233 1135 967 Q1135 700 1147 479 Q1159 254 1167 119 Q1233 106 1569 66 L1585 -25 Q1536 -20 881 0 Q680 -4 504 -4 Q324 -8 193 -16 L217 66 Q471 90 647 127 Q655 545 655 1335 Q655 2281 647 2736 Q532 2773 225 2793 Z " />
<glyph glyph-name="j" unicode="j" horiz-adv-x="1720" d="M102 2802 L86 2879 Q303 2875 487 2875 Q668 2871 922 2863 Q1192 2871 1323 2875 Q1450 2875 1602 2879 L1593 2802 Q1593 2802 1593 2802 Q1593 2802 1409 2777 Q1212 2748 1151 2744 Q1143 2519 1139 2130 Q1135 1741 1126 1225 Q1126 303 1118 217 Q1085 -70 913 -352 Q741 -639 233 -1008 L152 -975 Q369 -705 446 -586 Q524 -471 586 -242 Q643 -12 655 401 Q672 922 672 1704 Q672 2413 647 2736 Q401 2773 102 2802 Z " />
<glyph glyph-name="k" unicode="k" horiz-adv-x="3281" d="M209 2802 L193 2879 Q365 2875 508 2875 Q651 2871 889 2863 Q1135 2871 1278 2875 Q1417 2875 1585 2879 L1577 2802 Q1421 2781 1290 2765 Q1155 2744 1151 2728 Q1143 2531 1126 1241 Q1135 770 1143 496 Q1147 221 1151 143 Q1212 106 1622 66 L1630 -25 Q1577 -20 958 0 Q254 -16 193 -16 L209 66 Q627 115 647 127 Q664 545 664 1126 Q664 1696 659 2015 Q655 2331 639 2744 Q553 2753 209 2802 Z M1126 1319 L1126 1511 Q1479 1806 1933 2212 Q2388 2617 2458 2744 Q2195 2793 2142 2802 Q2142 2806 2130 2879 Q2236 2879 2712 2863 Q2765 2867 2863 2871 Q2957 2871 3052 2875 Q3146 2875 3199 2879 L3166 2802 Q3019 2777 2912 2753 Q2699 2626 1798 1864 Q1905 1683 2503 930 Q3097 176 3342 -74 L3207 -119 Q3084 -74 2757 217 Q2429 504 1991 942 Q1548 1376 1393 1536 Q1339 1503 1253 1430 Q1163 1352 1126 1319 Z " />
<glyph glyph-name="l" unicode="l" horiz-adv-x="2417" d="M2134 344 Q2191 483 2281 799 L2384 823 Q2343 713 2261 201 Q2175 -315 2167 -528 L2073 -504 Q2073 -430 2081 -270.5 Q2089 -111 2089 -25 Q1929 -20 1765 -16 Q1597 -16 1421 -12 Q1241 -8 1065 -4 Q889 0 729 0 Q573 -4 442 -4 Q307 -8 193 -16 L209 66 Q524 90 647 119 Q655 336 655 1282 Q655 2486 647 2744 Q573 2753 471 2769 Q365 2785 209 2802 L193 2879 Q381 2875 537 2875 Q692 2871 913 2863 Q1200 2871 1343 2875 Q1487 2875 1655 2879 L1638 2802 Q1442 2777 1372 2765 Q1303 2753 1151 2736 Q1143 2675 1126 1511 Q1135 815 1143 471 Q1147 127 1151 127 Q1167 127 1184 127 Q1499 127 1745 193 Q2007 258 2134 344 Z " />
<glyph glyph-name="semicolon" unicode="&#x3b;" horiz-adv-x="1311" d="M410 1577 Q672 1634 872 1663 Q872 1651 881 1577 Q885 1499 889 1417 Q893 1335 897 1294 Q897 1253 897 1225 Q516 1163 418 1135 Q418 1266 418 1368 Q414 1470 410 1577 Z M418 -74 L410 360 Q406 360 406 360 Q406 365 618 385 Q864 406 889 410 Q893 373 897 328 Q897 283 897 143 Q897 -365 737 -721 L606 -737 Q672 -475 672 -319 Q672 -160 623 -66 L418 -74 Z " />
<glyph glyph-name="quotesingle" unicode="&#x27;" horiz-adv-x="942" d="M201 2040 Q238 2101 303 2425 Q365 2748 369 3080 Q610 3002 745 2945 Q684 2851 504 2457.5 Q324 2064 311 2040 L201 2040 Z " />
<glyph glyph-name="z" unicode="z" horiz-adv-x="2945" d="M311 2032 Q344 2195 369 2372 Q389 2544 410 2789 Q430 3035 438 3265 L537 3240 Q541 3154 545 3052 Q549 2949 553 2916 Q553 2879 553 2855 Q991 2826 1655 2818 Q2007 2826 2331 2834 Q2654 2839 2761 2839 Q2699 2757 2548 2556 Q2392 2351 2101 1954 Q1806 1552 1437.5 1040 Q1069 528 799 143 Q889 143 938 135 Q1438 143 1876 197 Q2314 246 2511 377 Q2617 672 2662 897 L2769 938 Q2757 889 2650 238 Q2544 -389 2544 -463 Q2544 -467 2544 -471 L2441 -446 Q2466 -319 2466 -57 Q2400 -25 1217 -8 Q266 -25 102 -33 Q152 12 504 483 Q852 954 1376 1683 Q1901 2413 2097 2695 Q2060 2699 1987 2699 Q1782 2699 1307 2658 Q659 2601 561 2527 Q532 2527 410 2048 L311 2032 Z " />
<glyph glyph-name="x" unicode="x" horiz-adv-x="2904" d="M33 2802 L16 2879 Q131 2875 545 2855 Q750 2863 889 2867 Q1024 2871 1106 2875 Q1188 2879 1294 2879 L1274 2802 Q1188 2793 922 2744 Q1098 2470 1303 2175 Q1503 1880 1561 1798 Q1987 2355 2191 2744 Q2077 2769 1999 2781 Q1917 2793 1896 2802 L1880 2879 Q2007 2875 2114 2875 Q2220 2871 2376 2863 Q2572 2871 2658 2875 Q2740 2875 2839 2879 L2830 2802 Q2679 2765 2585 2744 Q2535 2728 2121.5 2240.5 Q1708 1753 1655 1663 Q1802 1466 1954 1257 Q2101 1044 2367 668 Q2634 287 2773 98 Q2908 -94 2945 -152 L2777 -193 Q2683 -131 2474 74 Q2265 279 1958 627 Q1651 971 1368 1343 Q1163 1053 889 602 Q614 152 614 119 Q692 106 741 98 Q791 90 950 66 L967 -25 Q782 -16 295 0 Q197 -4 115 -4 Q29 -8 -94 -16 L-66 74 Q-20 74 74 94 Q168 111 193 127 Q287 180 528 487 Q766 791 1274 1470 Q1237 1507 1077 1720 Q918 1933 639 2310 Q356 2687 295 2744 Q266 2757 168 2777 Q70 2793 33 2802 Z " />
<glyph glyph-name="c" unicode="c" horiz-adv-x="3314" d="M3039 1946 L2945 1974 Q2945 2130 2920 2318 Q2896 2400 2732 2527 Q2568 2654 2318 2736 Q2134 2793 1946 2793 Q1876 2793 1806 2785 Q1225 2720 967 2359 Q713 2007 713 1634 Q713 1622 713 1610 Q725 1151 946 815 Q1163 475 1520 303 Q1872 127 2298 119 Q2789 131 3207 352 L3154 176 Q2949 57 2658 -8 Q2363 -74 2032 -74 Q1331 -74 811 266 Q287 602 225 1319 Q221 1372 221 1425 Q221 1761 401 2089 Q606 2462 1044 2699 Q1479 2937 2097 2937 Q2511 2937 2953 2830 Q2953 2830 3031 3191 L3129 3207 Q3105 3084 3072 2560 Q3039 2085 3039 1966 Q3039 1954 3039 1946 Z " />
<glyph glyph-name="v" unicode="v" horiz-adv-x="3056" d="M-111 2802 L-127 2879 Q-8 2875 102 2875 Q213 2871 418 2863 Q1090 2879 1167 2879 L1151 2802 Q827 2777 762 2736 Q950 2253 1323 1401 Q1683 578 1704 578 Q1704 578 1704 578 Q1761 700 1982 1163 Q2200 1626 2388 2073 Q2576 2515 2626 2744 Q2437 2769 2241 2802 L2224 2879 Q2384 2875 2523 2875 Q2658 2871 2839 2863 Q3035 2871 3113 2875 Q3191 2875 3281 2879 L3256 2802 Q3109 2761 3015 2744 Q2920 2597 2634 2048 Q2347 1495 2035.5 860 Q1724 225 1536 -184 Q1507 -135 1044 868 Q582 1868 381 2290 Q180 2707 143 2744 Q78 2769 16 2781 Q-49 2793 -111 2802 Z " />
<glyph glyph-name="b" unicode="b" horiz-adv-x="2802" d="M631 2744 Q598 2757 217 2785 L193 2863 Q213 2863 700 2879 Q1188 2896 1401 2896 Q1757 2896 2015 2789 Q2273 2679 2290 2384 Q2294 2351 2294 2318 Q2294 2060 2114 1876 Q1909 1663 1655 1552 L1655 1544 Q1937 1491 2126 1368 Q2310 1241 2404 1077 Q2494 909 2494 729 Q2494 537 2392 360 Q2286 184 2089 78 Q1888 -29 1618 -33 Q1585 -33 1339 -25 Q1094 -16 655 -8 Q520 -16 193 -16 L209 66 Q258 66 430 90 Q598 111 631 127 Q631 127 631 127 Q664 127 664 1454 Q664 1835 655 2269 Q643 2699 631 2744 Z M1151 184 Q1298 98 1495 86 Q1720 86 1880 217 Q2040 344 2040 594 Q2040 827 1909 1024 Q1774 1221 1556 1331 Q1376 1421 1180 1421 Q1143 1421 1106 1417 Q1106 430 1151 184 Z M1106 1544 Q1503 1544 1667 1749 Q1831 1950 1831 2191 Q1831 2437 1679 2613 Q1528 2785 1282 2785 Q1217 2785 1118 2769 Q1114 2753 1114 2466 Q1110 2175 1110 1925 Q1106 1675 1106 1544 Z " />
<glyph glyph-name="n" unicode="n" horiz-adv-x="3719" d="M160 -16 L176 66 Q201 70 340 90 Q479 111 520 127 Q573 336 631 2728 Q594 2748 418 2769 Q299 2781 238 2781 Q205 2781 184 2777 L160 2863 Q446 2879 717 2888 Q983 2892 1098 2896 Q1270 2658 1487 2383.5 Q1704 2109 2114 1630 Q2519 1147 2744 885 Q2970 618 2978 606 Q2978 639 2970 1270 Q2961 1896 2949 2208 Q2937 2515 2888 2744 Q2818 2753 2695 2777 Q2572 2798 2474 2802 L2449 2879 Q2597 2875 2720 2875 Q2843 2871 3031 2863 Q3236 2871 3342 2875 Q3449 2875 3576 2879 L3559 2802 Q3514 2793 3403.5 2768.5 Q3293 2744 3248 2736 Q3224 2675 3203 2367 Q3178 2056 3162 1573 Q3146 1090 3129 582 Q3113 70 3105 -209 Q2896 29 2613 352 Q2331 676 2044 1012 Q1753 1343 1355.5 1814.5 Q958 2286 774 2511 Q778 2277 786 1913 Q791 1544 807 1098 Q823 647 835.5 434 Q848 221 864 127 Q901 111 1085 90 Q1270 66 1311 66 L1327 -16 Q1171 -8 1024 -4 Q877 -4 705 0 Q565 -4 446 -4 Q324 -8 160 -16 Z " />
<glyph glyph-name="m" unicode="m" horiz-adv-x="4346" d="M504 2802 L479 2879 Q598 2875 713 2875 Q827 2871 1081 2863 Q1352 2871 1462 2875 Q1573 2875 1688 2879 L1671 2802 Q1630 2798 1507 2769 Q1397 2744 1368 2744 Q1364 2744 1360 2744 Q1516 2269 1810 1487 Q2097 721 2114 721 Q2114 721 2114 721 Q2142 766 2494 1610 Q2847 2449 2945 2736 Q2834 2781 2662 2793 L2646 2879 Q2798 2875 2929 2875 Q3060 2871 3265 2863 Q3486 2871 3576 2875 Q3666 2875 3768 2879 L3752 2793 Q3752 2793 3748 2793 Q3711 2793 3408 2744 Q3482 2400 3641 1585 Q3797 770 3953 127 Q4006 106 4289 66 L4313 -25 Q4215 -16 3633 0 Q3133 -16 2970 -16 L2986 66 Q3080 82 3215 94 Q3346 106 3432 119 Q3432 180 3391 393 Q3351 606 3211 1339 Q3072 2073 3015 2417 L2998 2417 L1962 -41 Q1839 279 1638 799 Q1434 1315 1323 1618 Q1208 1917 1024 2425 L1008 2425 Q672 627 664 209 Q680 127 680 127 Q754 106 1040 66 L1057 -16 Q979 -16 430 0 Q311 -4 209 -4 Q106 -8 -8 -16 L25 66 Q45 74 147 90 Q246 102 311 119 Q356 250 594 1278 Q827 2302 913 2744 Q762 2744 504 2802 Z " />
<glyph glyph-name="comma" unicode="&#x2c;" horiz-adv-x="1311" d="M418 -74 L410 352 Q434 356 635 381 Q831 401 897 401 L897 152 Q897 -324 737 -721 L606 -737 Q606 -737 606 -737 Q610 -737 639 -586 Q672 -422 672 -295 Q672 -131 623 -57 Q598 -61 549 -61 Q500 -66 463 -66 Q422 -70 418 -74 Z " />
<glyph glyph-name="period" unicode="&#x2e;" horiz-adv-x="1311" d="M410 377 Q532 393 881 463 Q885 414 893 242 Q901 70 905 25 Q860 16 696 -12 Q532 -45 418 -66 Q418 45 418 152 Q414 258 410 377 Z " />
<glyph glyph-name="slash" unicode="&#x2f;" horiz-adv-x="2007" d="M1679 2871 L1991 2871 Q1802 2601 1528 2142 Q1249 1683 1003.5 1241 Q758 799 618 528 Q475 258 352 0 L16 -25 Q45 -8 807 1327 Q1569 2658 1679 2871 Z " />
<glyph glyph-name="space" unicode="&#x20;" horiz-adv-x="1024" d="" />
<glyph glyph-name="asciitilde" unicode="&#x7e;" d="" />
<glyph glyph-name="exclam" unicode="&#x21;" horiz-adv-x="1470" d="M569 745 L569 815 Q569 963 569 1069 Q565 1171 561 1294 L528 2142 Q496 2654 471 2830 Q516 2839 696 2859 Q872 2875 1040 2904 Q831 1835 737 791 Q713 791 569 745 Z M438 377 Q537 393 889 430 Q889 422 901 209 Q913 0 913 0 Q913 0 913 0 L455 -66 Q455 328 438 377 Z " />
<glyph glyph-name="at" unicode="&#x40;" d="" />
<glyph glyph-name="numbersign" unicode="&#x23;" d="" />
<glyph glyph-name="dollar" unicode="&#x24;" horiz-adv-x="2175" d="M1110 3510 Q1065 3142 1049 2830 Q1061 2834 1077 2839 Q1090 2839 1151 2839 Q1208 2839 1229 2839 Q1249 2834 1266 2830 Q1278 2982 1286 3109 Q1294 3236 1311 3482 L1511 3510 Q1442 3207 1401 2818 Q1446 2818 1552 2789 Q1659 2761 1704 2736 Q1737 2867 1737 2879 L1831 2896 Q1778 2576 1778 2089 L1679 2122 L1679 2367 Q1651 2486 1544 2576 Q1434 2662 1384 2662 Q1364 2376 1339 2134 Q1315 1892 1294 1602 Q1597 1409 1704 1225 Q1798 1057 1798 819 Q1798 791 1798 762 Q1765 426 1544 270 Q1319 111 1151 86 Q1126 -393 1110 -639 L922 -672 Q946 -500 967 -344 Q983 -188 1016 74 Q950 74 897 66 Q856 74 782 74 Q758 -201 741 -369 Q721 -537 713 -631 L512 -672 Q557 -565 647 82 Q426 115 303 184 L270 -33 L176 -57 Q180 -16 201 369 Q217 688 217 799 Q217 823 217 840 L303 823 Q319 602 319 520 Q430 348 664 250 L791 1450 Q352 1663 336 2130 Q344 2380 496 2572 Q643 2765 905 2818 Q913 2916 922 3183 Q930 3445 930 3482 L1110 3510 Z M1257 2703 Q1241 2707 1212 2712 Q1184 2712 1110 2712 L1040 2712 L950 1798 L1167 1688 L1257 2703 Z M897 2679 Q791 2671 696 2540 Q606 2417 606 2294 Q606 2281 606 2273 Q606 2015 823 1896 Q848 2142 864 2347 Q881 2548 897 2679 Z M1126 1257 L922 1368 Q897 1266 799 217 Q864 217 922 209 Q979 217 995 217 Q1012 217 1024 217 Q1053 496 1073 705 Q1094 913 1126 1257 Z M1511 655 Q1516 696 1516 733 Q1516 897 1442 995 Q1348 1114 1257 1176 L1159 242 Q1163 242 1167 242 Q1192 242 1266 283 Q1352 328 1425 422 Q1499 516 1511 655 Z " />
<glyph glyph-name="percent" unicode="&#x25;" horiz-adv-x="3138" d="M2318 1311 Q2630 1311 2785 1151 Q2929 995 2929 733 Q2929 721 2929 705 Q2920 397 2724 201 Q2527 0 2241 0 Q1896 0 1761 193 Q1622 385 1622 614 Q1634 930 1843 1122 Q2048 1311 2318 1311 Z M2306 119 Q2474 123 2556 287 Q2626 434 2626 590 Q2626 606 2626 623 Q2609 864 2523 1040 Q2441 1200 2281 1200 Q2269 1200 2257 1200 Q1974 1188 1937 770 Q1937 553 2015 336 Q2093 115 2290 111 Q2298 119 2302 119 Q2306 119 2306 119 Z M2257 2871 L2576 2879 Q2478 2761 2167 2253 Q1851 1745 1507 1126 Q1159 508 922 0 L594 -25 Q717 143 1470 1462 Q2224 2777 2257 2871 Z M889 2871 Q1217 2871 1364 2707 Q1511 2544 1511 2265 Q1507 2036 1401 1876 Q1290 1716 1126 1630 Q975 1552 823 1552 Q807 1552 791 1552 Q487 1565 352 1724 Q217 1884 209 2105 Q209 2130 209 2154 Q209 2474 406 2662 Q614 2863 889 2871 Z M872 1671 Q1004 1675 1077 1765 Q1147 1855 1176 1966 Q1200 2073 1200 2150 Q1192 2376 1114 2568 Q1036 2761 848 2761 Q705 2757 643 2683 Q582 2609 557 2490 Q532 2372 512 2257 Q520 2036 606 1851 Q688 1671 864 1671 Q868 1671 872 1671 Z " />
<glyph glyph-name="asciicircum" unicode="&#x5e;" d="" />
<glyph glyph-name="ampersand" unicode="&#x26;" horiz-adv-x="3334" d="M2208 1552 Q2310 1548 2777 1528 Q3133 1540 3240 1552 L3207 1462 Q2916 1425 2912 1417 Q2855 1110 2748 926 Q2638 737 2478 520 Q2613 385 2740 262 Q2867 139 2970 45 Q3068 -49 3105 -66 L2904 -119 Q2683 -8 2290 303 Q2109 135 1831 37 Q1548 -66 1257 -66 Q872 -66 573 127 Q274 315 250 672 Q254 926 463 1155 Q672 1384 991 1495 Q553 1896 528 2249 Q537 2290 537 2327 Q549 2482 672 2626 Q791 2765 983 2851 Q1176 2937 1384 2937 Q1397 2937 1409 2937 Q1610 2937 1786 2871 Q1970 2798 2081 2658 Q2191 2519 2191 2359 Q2191 2097 1995 1917 Q1798 1733 1470 1561 Q1630 1384 1778 1233 Q1925 1077 2093 913 Q2257 745 2367 631 Q2449 758 2515 999 Q2564 1188 2564 1343 Q2564 1384 2560 1425 Q2339 1462 2241 1462 L2208 1552 Z M1360 1655 Q1581 1774 1696 1950 Q1806 2122 1806 2290 Q1806 2490 1663 2637.5 Q1520 2785 1319 2785 Q1155 2785 1049 2675 Q938 2560 938 2376 Q938 2228 1032 2081 Q1122 1929 1241 1798 Q1360 1663 1360 1655 Z M1081 1409 Q750 1229 729 807 Q737 782 737 737 Q770 442 991 287 Q1212 127 1434 127 Q1696 127 1888 221 Q2077 315 2159 418 Q2023 512 1843 676 Q1659 840 1446 1044 Q1233 1245 1081 1409 Z " />
<glyph glyph-name="asterisk" unicode="&#x2a;" horiz-adv-x="1679" d="M270 2433 L393 2830 Q451 2773 623 2634 Q795 2490 807 2486 Q807 2486 758 2634 Q705 2777 668 2879 Q631 2982 614 2998 L1032 3039 Q1032 3031 942 2769 Q856 2519 856 2494 Q856 2494 856 2494 L864 2486 Q1065 2687 1208 2863 L1409 2494 Q1348 2494 1147 2482 Q942 2466 881 2449 Q991 2376 1167 2294 Q1339 2208 1352 2208 L1049 1896 Q975 2150 840 2417 Q807 2335 778 2122 Q754 1933 754 1901 Q754 1896 754 1896 L352 2089 Q393 2114 573 2261 Q754 2404 799 2449 L737 2449 Q655 2449 459 2441 Q270 2433 270 2433 Q270 2433 270 2433 Z " />
<glyph glyph-name="parenleft" unicode="&#x28;" horiz-adv-x="1434" d="M1081 3183 L1266 3207 Q1012 2814 852 2347 Q692 1880 688 1303 Q688 897 762 545 Q831 193 946 -57 Q1061 -311 1217 -520 L1040 -545 Q635 -135 463 307 Q307 692 307 1126 Q307 1188 311 1249 Q336 1679 537 2187 Q733 2691 1081 3183 Z " />
<glyph glyph-name="parenright" unicode="&#x29;" horiz-adv-x="1434" d="M352 -520 L160 -553 Q422 -168 586 315 Q745 799 745 1319 Q745 1790 664 2163 Q582 2531 475 2753 Q365 2974 217 3183 L393 3207 Q623 2990 791 2720 Q954 2445 1044 2130 Q1118 1851 1118 1552 Q1118 1511 1118 1470 Q1090 561 352 -520 Z " />
<glyph glyph-name="underscore" unicode="&#x5f;" horiz-adv-x="2048" d="M0 -311 L2048 -311 L2048 -520 L0 -520 L0 -311 Z " />
<glyph glyph-name="plus" unicode="&#x2b;" horiz-adv-x="1090" d="M569 745 L569 815 Q569 963 569 1069 Q565 1171 561 1294 L528 2142 Q496 2654 471 2830 Q516 2839 696 2859 Q872 2875 1040 2904 Q831 1835 737 791 Q713 791 569 745 Z M438 377 Q537 393 889 430 Q889 422 901 209 Q913 0 913 0 Q913 0 913 0 L455 -66 Q455 328 438 377 Z " />
<glyph glyph-name="Q" unicode="Q" horiz-adv-x="3871" d="M2281 -33 Q2028 -66 1806 -66 Q1343 -66 1032 82 Q569 303 393 659 Q217 1012 209 1360 Q217 1376 217 1401 Q229 1786 426 2130 Q618 2474 995 2691 Q1368 2908 1880 2937 Q1942 2941 1999 2941 Q2351 2941 2638 2855 Q2970 2757 3195 2564 Q3420 2372 3535 2114 Q3650 1851 3650 1552 Q3650 1397 3609 1200 Q3547 922 3412 717 Q3277 508 3129 385 Q2978 262 2810 152 Q2937 -33 3162 -254 Q3387 -475 3658 -700 Q3924 -930 3936 -930 L3842 -967 Q3723 -954 3162 -623 Q2597 -295 2281 -33 Z M1585 2761 Q1143 2679 913 2327 Q680 1970 672 1561 Q688 1446 688 1409 Q762 881 1094 545 Q1421 205 1786 119 Q1860 102 2040 86 Q2359 94 2630 258 Q2896 422 3047 758 Q3162 1016 3162 1368 Q3162 1466 3154 1569 Q3138 1790 3011 2032 Q2884 2269 2675 2458 Q2462 2642 2183 2732 Q2015 2785 1835 2785 Q1712 2785 1585 2761 Z " />
<glyph glyph-name="W" unicode="W" horiz-adv-x="4321" d="M-94 2802 L-111 2879 Q16 2875 131 2875 Q242 2871 446 2863 Q1102 2879 1151 2879 L1126 2802 Q1110 2793 754 2744 Q819 2494 909 2154 Q995 1815 1102 1417 Q1208 1020 1327 647 L1335 647 Q1544 1151 1769 1753 Q1995 2351 2064 2634 Q1995 2646 1925 2658 Q1855 2666 1663 2695 L1647 2785 Q1778 2781 1892 2781 Q2003 2777 2191 2769 Q2437 2777 2560 2781 Q2679 2781 2818 2785 L2802 2695 Q2564 2662 2474 2634 L3215 614 L3232 623 Q3232 618 3232 618 Q3248 618 3502 1516 Q3768 2474 3793 2744 Q3748 2753 3604 2773 Q3457 2793 3408 2802 L3391 2879 Q3539 2875 3662 2875 Q3781 2871 3944 2863 Q4157 2871 4252 2875 Q4342 2875 4456 2879 L4448 2802 Q4325 2789 4182 2736 Q4129 2679 3805 1757 Q3478 831 3129 -217 Q3015 57 2839 487 Q2662 918 2572 1147 Q2478 1376 2359 1688 Q2236 1999 2142 2232 Q2114 2130 1974 1774 Q1831 1417 1712 1114 Q1589 811 1384 311 Q1180 -188 1167 -217 Q1085 -33 892.5 610 Q700 1253 524 1830.5 Q348 2408 209 2744 Q86 2769 -94 2802 Z " />
<glyph glyph-name="E" unicode="E" horiz-adv-x="2609" d="M639 2736 Q516 2765 209 2802 L193 2879 Q401 2875 582 2875 Q762 2871 1081 2863 Q2073 2879 2130 2896 Q2134 2900 2146 2978 Q2154 3056 2159 3088 L2257 3105 Q2236 2970 2208 2613 Q2175 2257 2167 2249 Q2171 2253 2175 2257 L2089 2290 L2089 2576 Q2056 2650 1729 2703 Q1401 2753 1159 2753 Q1155 2621 1151 2433 Q1143 2241 1139 2048 Q1135 1851 1135 1577 Q1839 1597 1982 1647 Q2015 1741 2023 1823 L2114 1831 Q2101 1778 2052 1430 Q1999 1081 1999 1065 L1921 1098 Q1921 1098 1921 1098 Q1925 1098 1929 1122 Q1929 1151 1933 1200 Q1933 1249 1937 1307 Q1937 1360 1937 1368 Q1753 1462 1135 1462 Q1135 1376 1126 1311 Q1130 1122 1147 741 Q1159 356 1159 111 Q1933 123 2142 258 Q2171 332 2232 614 L2327 639 Q2216 45 2191 -303 L2105 -287 L2105 -41 Q2068 -29 1774 -16 Q1475 -8 913 0 Q344 -16 193 -25 L217 66 Q492 86 639 119 Q664 1225 664 1610 Q664 2232 639 2736 Z " />
<glyph glyph-name="R" unicode="R" horiz-adv-x="3064" d="M1118 1450 Q1135 1450 1151 1450 Q1466 1450 1745 1581 Q2036 1720 2089 2105 Q2093 2130 2093 2154 Q2093 2367 1901 2560 Q1688 2769 1151 2769 L1135 2769 Q1135 2503 1126 2085 Q1118 1667 1118 1450 Z M1118 1319 Q1118 680 1143 127 Q1184 111 1372 90 Q1561 70 1577 66 L1593 -16 Q1454 -8 1315 -4 Q1171 -4 1008 0 Q233 -16 193 -25 L209 74 Q307 74 463 98 Q614 119 639 127 Q655 373 655 1417 Q655 2474 639 2744 Q512 2765 201 2793 L193 2871 Q426 2875 631 2879 Q836 2879 1167 2879 L1368 2879 Q1384 2879 1401 2879 Q2560 2879 2585 2298 Q2585 2085 2388 1851 Q2191 1618 1999 1520 Q2232 1118 2589 606 Q2941 94 3138 -102 L2961 -135 Q2630 61 1511 1343 Q1303 1319 1118 1319 Z " />
<glyph glyph-name="T" unicode="T" horiz-adv-x="3056" d="M41 2114 Q94 2683 94 3154 Q176 3138 193 3138 Q209 2896 217 2863 Q348 2855 504 2851 Q659 2843 848 2839 Q1036 2830 1184 2830 Q1331 2826 1503 2822 Q2527 2839 2912 2863 Q2912 2867 2937 2961 Q2961 3052 2970 3121 Q2970 3121 3015 3129 Q3056 3138 3072 3138 Q3043 2970 3006 2666 Q2970 2359 2937 2081 Q2888 2105 2847 2105 Q2851 2183 2855 2249 Q2855 2310 2855 2433 L2855 2519 Q2793 2589 2417 2646 Q2085 2695 1851 2695 Q1819 2695 1786 2695 Q1778 2634 1761 1671 Q1778 201 1786 127 Q2114 86 2310 74 L2327 -16 Q2220 0 1602 0 Q1049 0 729 -16 L754 66 Q860 78 909 86 Q958 90 1094 106 Q1229 119 1274 127 Q1294 893 1294 1528 Q1294 2339 1274 2695 Q483 2695 217 2527 Q197 2494 168 2335 Q135 2171 127 2142 Q127 2142 86 2130 Q45 2118 41 2114 Z " />
<glyph glyph-name="Y" unicode="Y" horiz-adv-x="2679" d="M160 2744 Q-37 2793 -127 2793 L-143 2879 Q-4 2875 119 2875 Q242 2871 438 2863 Q1073 2879 1126 2888 L1110 2802 Q1077 2793 754 2744 Q1118 2142 1544 1503 Q1679 1696 1957.5 2158.5 Q2236 2621 2257 2744 Q2208 2748 2118 2769 Q2028 2785 1937 2802 L1921 2879 Q2036 2875 2138 2875 Q2236 2871 2400 2863 Q2908 2879 2937 2879 L2920 2802 Q2830 2789 2646 2744 Q2568 2699 2158.5 2121.5 Q1749 1544 1647 1335 Q1647 1335 1647 1335 Q1647 1335 1630 938 Q1651 160 1663 119 Q1958 82 2056 66 L2064 -16 Q1950 -16 1311 0 Q1167 -4 1044 -4 Q918 -8 770 -16 L782 66 Q1126 111 1151 127 Q1167 225 1167 840 Q1167 1040 1167 1126 Q1163 1208 1159 1294 Q1159 1339 778 1900.5 Q397 2462 160 2744 Z " />
<glyph glyph-name="U" unicode="U" horiz-adv-x="3510" d="M512 2744 Q496 2748 373 2773 Q250 2793 193 2802 L176 2879 Q315 2875 434 2875 Q553 2871 774 2863 Q1053 2871 1188 2875 Q1323 2875 1479 2879 L1454 2802 Q1405 2793 1286 2781 Q1167 2765 1094 2753 Q1024 2740 1024 2736 Q1024 2736 1024 2736 Q1008 2212 1008 1966 Q1012 1782 1016 1630 Q1016 1479 1016 1233 Q1016 86 1847 86 Q1855 86 1864 86 Q2294 90 2482 360 Q2666 627 2679 1118 Q2687 1319 2687 1720 Q2687 2191 2662 2744 Q2593 2753 2478 2769 Q2359 2785 2224 2793 L2191 2879 Q2322 2879 2400 2875 Q2478 2871 2597 2867 Q2716 2863 2888 2855 Q3207 2871 3351 2879 L3330 2793 Q3076 2753 3039 2736 Q3035 2650 3035 2580 Q3031 2507 3023 2335 L3023 1622 Q3023 1249 3015 1081 Q2990 594 2699 282.5 Q2408 -29 1896 -66 Q1839 -70 1782 -70 Q1298 -70 946 184 Q553 467 537 1081 Q537 1630 528 1864 Q528 2642 512 2744 Z " />
<glyph glyph-name="I" unicode="I" horiz-adv-x="1798" d="M217 2802 L193 2879 Q311 2879 406 2875 Q496 2871 651 2867 Q803 2863 1032 2855 Q1421 2871 1610 2879 L1585 2793 Q1585 2793 1151 2736 Q1143 2666 1126 1729 Q1130 1479 1134.5 1229 Q1139 979 1143 770 Q1143 557 1147 381 Q1151 201 1151 127 Q1229 111 1397 90 Q1561 66 1585 66 L1610 -16 Q1552 -12 1413 -8 Q1274 -8 1110 -4 Q946 -4 848 0 Q754 -4 610 -4 Q463 -8 344 -8 Q225 -12 193 -16 L209 66 Q233 70 279 74 Q319 78 463 98 Q606 119 647 127 Q664 414 664 1319 Q664 2146 647 2736 Q602 2753 217 2802 Z " />
<glyph glyph-name="O" unicode="O" horiz-adv-x="3879" d="M1577 2744 Q1348 2691 1180 2572 Q1008 2449 905 2298 Q803 2142 754 1958 Q705 1769 696 1569 Q705 1495 709 1450 Q709 1405 713 1352 Q786 844 1110 524 Q1430 201 1823 119 Q1876 115 1917 111 Q1958 102 2023 94 Q2314 94 2576 238 Q2834 377 2994 647 Q3154 913 3154 1274 Q3154 1556 3064 1818.5 Q2974 2081 2802 2302 Q2630 2523 2396 2650 Q2159 2777 1872 2777 Q1704 2777 1577 2744 Z M1847 2929 Q1966 2941 2081 2941 Q2359 2941 2593 2875 Q2925 2785 3162 2601 Q3396 2413 3523 2150 Q3650 1888 3650 1561 Q3650 1335 3609 1176 Q3527 827 3305 549 Q3080 270 2728 106 Q2376 -57 1937 -74 Q1896 -74 1860 -74 Q1315 -74 950 139 Q561 369 389 696 Q217 1024 209 1335 Q217 1360 217 1393 Q238 1782 422 2118 Q602 2449 967 2666 Q1331 2884 1847 2929 Z " />
<glyph glyph-name="P" unicode="P" horiz-adv-x="2617" d="M193 2888 L1135 2888 Q1171 2888 1204 2888 Q1847 2888 2159 2744 Q2482 2593 2494 2265 Q2494 2245 2494 2224 Q2494 1835 2175 1573 Q1839 1298 1352 1217 L1368 1319 Q1753 1409 1880 1650.5 Q2007 1892 2007 2122 Q2007 2277 1937 2429 Q1868 2576 1675 2683 Q1507 2773 1233 2773 Q1188 2773 1143 2769 Q1130 2109 1118 1241 Q1126 872 1135 639 Q1139 406 1143 127 Q1610 78 1663 74 L1688 -16 Q1458 -8 1266 -4 Q1073 -4 848 0 Q676 -4 528 -4 Q381 -8 193 -16 L217 74 Q471 98 647 127 Q647 397 651 569 Q655 741 659 913 Q659 1085 664 1298 Q664 1507 664 1786 Q664 2433 647 2744 Q471 2785 209 2802 L193 2888 Z " />
<glyph glyph-name="braceleft" unicode="&#x7b;" horiz-adv-x="1434" d="M1241 3080 Q1024 3064 901 2961 Q774 2855 774 2535 Q774 2449 782 2298 Q791 2146 791 2073 Q791 1872 721 1737 Q647 1602 438 1487 Q651 1389 729 1249 Q807 1110 807 897 Q807 803 778 504 Q750 201 745 82 Q745 66 745 49 Q745 -193 926 -299 Q1114 -418 1257 -418 L1274 -418 L1225 -520 Q901 -504 639 -328 Q373 -156 369 176 Q369 188 369 201 Q369 356 418 647 Q471 958 471 1057 Q471 1430 119 1450 L160 1544 Q446 1544 446 1855 Q446 1954 421.5 2167 Q397 2380 393 2478 Q401 2511 401 2560 Q422 2892 668 3027 Q909 3158 1266 3199 L1241 3080 Z " />
<glyph glyph-name="braceright" unicode="&#x7d;" horiz-adv-x="1434" d="M193 3080 L176 3199 Q1004 3109 1032 2535 Q1036 2494 1036 2441 Q1036 2318 1016 2146 Q983 1901 983 1864 Q991 1704 1057 1626 Q1122 1544 1282 1544 L1311 1450 Q971 1417 958 1065 Q963 975 1020 655 Q1073 352 1073 168 Q1073 156 1073 143 Q1061 -176 807 -332 Q549 -487 217 -528 L160 -426 Q352 -406 524 -295 Q696 -184 696 86 Q696 262 659 565 Q623 864 623 913 Q631 1110 713 1249 Q791 1384 991 1487 Q848 1569 774 1655 Q696 1737 668 1835 Q639 1929 631 2064 Q639 2163 647 2257 Q651 2351 655 2388 Q655 2421 655 2535 Q655 2544 655 2552 Q655 2847 537 2953 Q410 3064 193 3080 Z " />
<glyph glyph-name="bar" unicode="&#x7c;" d="" />
<glyph glyph-name="A" unicode="A" horiz-adv-x="2920" d="M-233 -25 L-217 66 Q-201 70 -45 94 Q111 119 135 127 Q172 172 397 741 Q618 1307 848 1917 Q1077 2523 1159 2744 Q1130 2773 840 2802 L831 2888 Q909 2884 1044 2879 Q1180 2871 1425 2863 Q1946 2879 2064 2888 L2056 2802 Q1782 2761 1745 2744 Q1892 2277 2093 1724 Q2294 1167 2478 704.5 Q2662 242 2736 127 Q2740 123 2908 98 Q3072 74 3088 74 L3105 -16 Q3105 -16 3105 -16 Q3105 -16 2400 0 Q2310 -4 2163 -4 Q2015 -8 1892 -8 Q1769 -12 1729 -16 L1753 74 Q1888 78 2032 102 Q2167 127 2167 127 Q2167 127 2167 127 Q2150 193 1966 721 Q1778 1245 1737 1327 Q1311 1327 791 1282 Q750 1192 623 684 Q504 209 504 135 Q504 131 504 127 Q668 74 848 74 L872 -16 Q676 0 328 0 Q-147 0 -233 -25 Z M840 1470 Q918 1466 1225 1462 Q1528 1454 1704 1450 Q1704 1450 1704 1450 Q1704 1466 1614 1733 Q1520 2011 1425 2286 Q1327 2556 1286 2679 L1282 2679 Q1266 2642 1208 2482 Q1151 2322 1069 2101 Q987 1880 921.5 1695.5 Q856 1511 840 1470 Z " />
<glyph glyph-name="S" unicode="S" horiz-adv-x="2265" d="M1896 2081 L1798 2122 Q1798 2281 1786 2433 Q1708 2621 1556 2712 Q1405 2802 1225 2802 Q1040 2802 905 2707 Q770 2609 745 2449 Q741 2413 741 2380 Q741 2228 852 2130 Q983 2007 1323 1798 Q1659 1585 1835 1380 Q2007 1171 2007 831 L2007 713 Q1974 315 1675 127 Q1376 -66 975 -66 Q705 -66 438 33 Q426 0 352 -393 L258 -418 Q279 -319 315 86 Q340 377 340 676 Q340 791 336 905 L430 881 Q430 856 426 831 Q430 713 455 528 Q545 311 725 192.5 Q905 74 1106 66 Q1331 78 1503 221 Q1671 365 1671 586 Q1671 967 1151 1257 Q426 1675 426 2195 Q426 2216 426 2241 Q434 2531 655 2732 Q877 2929 1294 2929 Q1536 2929 1823 2855 Q1855 2974 1896 3191 L1991 3199 Q1896 2445 1896 2081 Z " />
<glyph glyph-name="D" unicode="D" horiz-adv-x="3846" d="M1167 2703 Q1139 1954 1126 1282 Q1143 561 1159 225 Q1368 156 1638 143 Q2281 152 2748 569 Q3146 926 3146 1454 Q3146 1540 3138 1630 Q3105 1901 2990 2101 Q2871 2302 2671 2445 Q2470 2585 2195 2658 Q1921 2728 1585 2728 Q1384 2728 1167 2703 Z M639 2736 Q573 2761 201 2802 L193 2879 Q340 2875 463 2875 Q582 2871 754 2863 Q1008 2867 1212 2871 Q1417 2871 1720 2871 L2134 2871 Q2585 2871 2937 2712 Q3285 2552 3473 2277 Q3658 1999 3658 1679 Q3658 1159 3359 782 Q3060 406 2584.5 209 Q2109 12 1593 -8 Q537 -8 193 -16 L209 66 Q483 94 647 127 Q664 782 664 1376 Q664 1815 659 2048 Q655 2281 639 2736 Z " />
<glyph glyph-name="F" unicode="F" horiz-adv-x="2609" d="M647 2744 Q475 2773 217 2802 L193 2879 Q193 2879 193 2879 Q193 2879 1200 2863 Q2179 2879 2216 2888 Q2224 2920 2249 3043 Q2269 3166 2273 3174 L2359 3199 Q2335 3088 2314 2699 Q2290 2306 2290 2191 L2191 2224 Q2191 2486 2175 2552 Q2109 2634 1749 2691 Q1389 2744 1167 2744 Q1139 2486 1126 1778 Q1135 1696 1135 1552 Q1806 1552 1999 1618 L2056 1855 L2142 1864 Q2122 1696 2101 1380 Q2081 1065 2081 950 L1991 975 Q1991 1061 1966 1319 Q1942 1348 1786 1376 Q1626 1405 1446 1417 Q1311 1425 1204 1425 Q1167 1425 1135 1425 Q1135 496 1167 119 Q1200 115 1303 102 Q1405 90 1479 82 Q1548 70 1618 66 L1630 -25 Q1630 -25 1630 -25 Q1630 -25 1008 -8 Q889 -12 700 -12 Q512 -16 365 -16 Q217 -20 193 -25 L209 66 Q209 70 418 90 Q623 111 647 127 Q664 1413 664 1520 Q664 1753 647 2744 Z " />
<glyph glyph-name="G" unicode="G" horiz-adv-x="3703" d="M2249 1266 Q2388 1266 2986 1249 Q3428 1266 3559 1266 L3543 1184 Q3400 1176 3183 1135 Q3174 1102 3158 664 Q3174 106 3174 66 Q2548 -74 2081 -74 Q1458 -74 1040 135 Q618 340 426 668 Q233 991 225 1368 Q225 1389 225 1409 Q225 1741 397 2081 Q582 2441 1012 2687 Q1442 2929 2105 2929 Q2507 2929 2998 2830 Q3072 3183 3072 3207 L3166 3232 Q3150 3125 3129 2773 Q3109 2421 3105 2159 Q3113 2089 3113 1966 L3015 2015 Q3015 2175 2970 2384 Q2867 2511 2707 2601 Q2548 2691 2359 2740 Q2167 2785 1954 2785 Q1401 2785 1098 2486 Q725 2142 713 1618 Q717 1217 918 864 Q1114 512 1450 299 Q1782 86 2175 74 Q2372 78 2552 131 Q2695 172 2695 180 Q2695 184 2687 184 Q2703 389 2703 655 Q2703 930 2687 1135 Q2642 1139 2486 1159 Q2327 1176 2273 1184 L2249 1266 Z " />
<glyph glyph-name="H" unicode="H" horiz-adv-x="3969" d="M225 2793 L193 2888 Q274 2888 360 2883.5 Q446 2879 537 2879 Q623 2875 713 2871 Q803 2867 889 2863 Q1491 2879 1585 2888 L1561 2802 Q1470 2793 1318.5 2764.5 Q1167 2736 1159 2736 Q1135 2331 1135 1593 L1360 1593 L1647 1593 L2200 1593 Q2408 1602 2830 1602 L2830 2032 Q2830 2425 2810 2744 Q2703 2761 2621 2777 Q2540 2789 2408 2802 L2384 2888 Q2417 2879 3056 2863 Q3359 2871 3494 2875 Q3629 2875 3768 2879 L3744 2802 Q3621 2781 3330 2744 Q3314 2421 3297 1409 Q3305 979 3314 705 Q3318 430 3326 266 Q3330 123 3334 123 Q3334 123 3334 127 Q3437 102 3559 90 Q3682 78 3752 66 L3777 -16 Q3723 -12 3588 -8 Q3453 -8 3297 -4 Q3138 -4 3039 0 Q2867 -4 2720 -4 Q2572 -8 2384 -16 L2408 66 Q2712 102 2810 127 Q2830 295 2830 1454 Q2687 1454 1929 1417 Q1171 1376 1126 1360 Q1130 1233 1135 967 Q1135 700 1147 479 Q1159 254 1167 119 Q1233 106 1569 66 L1585 -25 Q1536 -20 881 0 Q680 -4 504 -4 Q324 -8 193 -16 L217 66 Q471 90 647 127 Q655 545 655 1335 Q655 2281 647 2736 Q532 2773 225 2793 Z " />
<glyph glyph-name="J" unicode="J" horiz-adv-x="1720" d="M102 2802 L86 2879 Q303 2875 487 2875 Q668 2871 922 2863 Q1192 2871 1323 2875 Q1450 2875 1602 2879 L1593 2802 Q1593 2802 1593 2802 Q1593 2802 1409 2777 Q1212 2748 1151 2744 Q1143 2519 1139 2130 Q1135 1741 1126 1225 Q1126 303 1118 217 Q1085 -70 913 -352 Q741 -639 233 -1008 L152 -975 Q369 -705 446 -586 Q524 -471 586 -242 Q643 -12 655 401 Q672 922 672 1704 Q672 2413 647 2736 Q401 2773 102 2802 Z " />
<glyph glyph-name="K" unicode="K" horiz-adv-x="3281" d="M209 2802 L193 2879 Q365 2875 508 2875 Q651 2871 889 2863 Q1135 2871 1278 2875 Q1417 2875 1585 2879 L1577 2802 Q1421 2781 1290 2765 Q1155 2744 1151 2728 Q1143 2531 1126 1241 Q1135 770 1143 496 Q1147 221 1151 143 Q1212 106 1622 66 L1630 -25 Q1577 -20 958 0 Q254 -16 193 -16 L209 66 Q627 115 647 127 Q664 545 664 1126 Q664 1696 659 2015 Q655 2331 639 2744 Q553 2753 209 2802 Z M1126 1319 L1126 1511 Q1479 1806 1933 2212 Q2388 2617 2458 2744 Q2195 2793 2142 2802 Q2142 2806 2130 2879 Q2236 2879 2712 2863 Q2765 2867 2863 2871 Q2957 2871 3052 2875 Q3146 2875 3199 2879 L3166 2802 Q3019 2777 2912 2753 Q2699 2626 1798 1864 Q1905 1683 2503 930 Q3097 176 3342 -74 L3207 -119 Q3084 -74 2757 217 Q2429 504 1991 942 Q1548 1376 1393 1536 Q1339 1503 1253 1430 Q1163 1352 1126 1319 Z " />
<glyph glyph-name="L" unicode="L" horiz-adv-x="2417" d="M2134 344 Q2191 483 2281 799 L2384 823 Q2343 713 2261 201 Q2175 -315 2167 -528 L2073 -504 Q2073 -430 2081 -270.5 Q2089 -111 2089 -25 Q1929 -20 1765 -16 Q1597 -16 1421 -12 Q1241 -8 1065 -4 Q889 0 729 0 Q573 -4 442 -4 Q307 -8 193 -16 L209 66 Q524 90 647 119 Q655 336 655 1282 Q655 2486 647 2744 Q573 2753 471 2769 Q365 2785 209 2802 L193 2879 Q381 2875 537 2875 Q692 2871 913 2863 Q1200 2871 1343 2875 Q1487 2875 1655 2879 L1638 2802 Q1442 2777 1372 2765 Q1303 2753 1151 2736 Q1143 2675 1126 1511 Q1135 815 1143 471 Q1147 127 1151 127 Q1167 127 1184 127 Q1499 127 1745 193 Q2007 258 2134 344 Z " />
<glyph glyph-name="colon" unicode="&#x3a;" horiz-adv-x="1311" d="M410 1577 Q434 1581 590 1614 Q745 1642 889 1671 Q889 1651 897 1446 Q905 1241 905 1233 Q434 1143 426 1135 Q426 1167 418 1359.5 Q410 1552 410 1577 Z M410 377 Q475 377 889 463 Q889 446 897 237.5 Q905 29 905 25 Q782 0 618 -29 Q455 -57 426 -66 Q426 -29 418 159.5 Q410 348 410 377 Z " />
<glyph glyph-name="quotedbl" unicode="&#x22;" d="" />
<glyph glyph-name="Z" unicode="Z" horiz-adv-x="2945" d="M311 2032 Q344 2195 369 2372 Q389 2544 410 2789 Q430 3035 438 3265 L537 3240 Q541 3154 545 3052 Q549 2949 553 2916 Q553 2879 553 2855 Q991 2826 1655 2818 Q2007 2826 2331 2834 Q2654 2839 2761 2839 Q2699 2757 2548 2556 Q2392 2351 2101 1954 Q1806 1552 1437.5 1040 Q1069 528 799 143 Q889 143 938 135 Q1438 143 1876 197 Q2314 246 2511 377 Q2617 672 2662 897 L2769 938 Q2757 889 2650 238 Q2544 -389 2544 -463 Q2544 -467 2544 -471 L2441 -446 Q2466 -319 2466 -57 Q2400 -25 1217 -8 Q266 -25 102 -33 Q152 12 504 483 Q852 954 1376 1683 Q1901 2413 2097 2695 Q2060 2699 1987 2699 Q1782 2699 1307 2658 Q659 2601 561 2527 Q532 2527 410 2048 L311 2032 Z " />
<glyph glyph-name="X" unicode="X" horiz-adv-x="2904" d="M33 2802 L16 2879 Q131 2875 545 2855 Q750 2863 889 2867 Q1024 2871 1106 2875 Q1188 2879 1294 2879 L1274 2802 Q1188 2793 922 2744 Q1098 2470 1303 2175 Q1503 1880 1561 1798 Q1987 2355 2191 2744 Q2077 2769 1999 2781 Q1917 2793 1896 2802 L1880 2879 Q2007 2875 2114 2875 Q2220 2871 2376 2863 Q2572 2871 2658 2875 Q2740 2875 2839 2879 L2830 2802 Q2679 2765 2585 2744 Q2535 2728 2121.5 2240.5 Q1708 1753 1655 1663 Q1802 1466 1954 1257 Q2101 1044 2367 668 Q2634 287 2773 98 Q2908 -94 2945 -152 L2777 -193 Q2683 -131 2474 74 Q2265 279 1958 627 Q1651 971 1368 1343 Q1163 1053 889 602 Q614 152 614 119 Q692 106 741 98 Q791 90 950 66 L967 -25 Q782 -16 295 0 Q197 -4 115 -4 Q29 -8 -94 -16 L-66 74 Q-20 74 74 94 Q168 111 193 127 Q287 180 528 487 Q766 791 1274 1470 Q1237 1507 1077 1720 Q918 1933 639 2310 Q356 2687 295 2744 Q266 2757 168 2777 Q70 2793 33 2802 Z " />
<glyph glyph-name="C" unicode="C" horiz-adv-x="3314" d="M3039 1946 L2945 1974 Q2945 2130 2920 2318 Q2896 2400 2732 2527 Q2568 2654 2318 2736 Q2134 2793 1946 2793 Q1876 2793 1806 2785 Q1225 2720 967 2359 Q713 2007 713 1634 Q713 1622 713 1610 Q725 1151 946 815 Q1163 475 1520 303 Q1872 127 2298 119 Q2789 131 3207 352 L3154 176 Q2949 57 2658 -8 Q2363 -74 2032 -74 Q1331 -74 811 266 Q287 602 225 1319 Q221 1372 221 1425 Q221 1761 401 2089 Q606 2462 1044 2699 Q1479 2937 2097 2937 Q2511 2937 2953 2830 Q2953 2830 3031 3191 L3129 3207 Q3105 3084 3072 2560 Q3039 2085 3039 1966 Q3039 1954 3039 1946 Z " />
<glyph glyph-name="V" unicode="V" horiz-adv-x="3056" d="M-111 2802 L-127 2879 Q-8 2875 102 2875 Q213 2871 418 2863 Q1090 2879 1167 2879 L1151 2802 Q827 2777 762 2736 Q950 2253 1323 1401 Q1683 578 1704 578 Q1704 578 1704 578 Q1761 700 1982 1163 Q2200 1626 2388 2073 Q2576 2515 2626 2744 Q2437 2769 2241 2802 L2224 2879 Q2384 2875 2523 2875 Q2658 2871 2839 2863 Q3035 2871 3113 2875 Q3191 2875 3281 2879 L3256 2802 Q3109 2761 3015 2744 Q2920 2597 2634 2048 Q2347 1495 2035.5 860 Q1724 225 1536 -184 Q1507 -135 1044 868 Q582 1868 381 2290 Q180 2707 143 2744 Q78 2769 16 2781 Q-49 2793 -111 2802 Z " />
<glyph glyph-name="B" unicode="B" horiz-adv-x="2802" d="M631 2744 Q598 2757 217 2785 L193 2863 Q213 2863 700 2879 Q1188 2896 1401 2896 Q1757 2896 2015 2789 Q2273 2679 2290 2384 Q2294 2351 2294 2318 Q2294 2060 2114 1876 Q1909 1663 1655 1552 L1655 1544 Q1937 1491 2126 1368 Q2310 1241 2404 1077 Q2494 909 2494 729 Q2494 537 2392 360 Q2286 184 2089 78 Q1888 -29 1618 -33 Q1585 -33 1339 -25 Q1094 -16 655 -8 Q520 -16 193 -16 L209 66 Q258 66 430 90 Q598 111 631 127 Q631 127 631 127 Q664 127 664 1454 Q664 1835 655 2269 Q643 2699 631 2744 Z M1151 184 Q1298 98 1495 86 Q1720 86 1880 217 Q2040 344 2040 594 Q2040 827 1909 1024 Q1774 1221 1556 1331 Q1376 1421 1180 1421 Q1143 1421 1106 1417 Q1106 430 1151 184 Z M1106 1544 Q1503 1544 1667 1749 Q1831 1950 1831 2191 Q1831 2437 1679 2613 Q1528 2785 1282 2785 Q1217 2785 1118 2769 Q1114 2753 1114 2466 Q1110 2175 1110 1925 Q1106 1675 1106 1544 Z " />
<glyph glyph-name="N" unicode="N" horiz-adv-x="3719" d="M160 -16 L176 66 Q201 70 340 90 Q479 111 520 127 Q573 336 631 2728 Q594 2748 418 2769 Q299 2781 238 2781 Q205 2781 184 2777 L160 2863 Q446 2879 717 2888 Q983 2892 1098 2896 Q1270 2658 1487 2383.5 Q1704 2109 2114 1630 Q2519 1147 2744 885 Q2970 618 2978 606 Q2978 639 2970 1270 Q2961 1896 2949 2208 Q2937 2515 2888 2744 Q2818 2753 2695 2777 Q2572 2798 2474 2802 L2449 2879 Q2597 2875 2720 2875 Q2843 2871 3031 2863 Q3236 2871 3342 2875 Q3449 2875 3576 2879 L3559 2802 Q3514 2793 3403.5 2768.5 Q3293 2744 3248 2736 Q3224 2675 3203 2367 Q3178 2056 3162 1573 Q3146 1090 3129 582 Q3113 70 3105 -209 Q2896 29 2613 352 Q2331 676 2044 1012 Q1753 1343 1355.5 1814.5 Q958 2286 774 2511 Q778 2277 786 1913 Q791 1544 807 1098 Q823 647 835.5 434 Q848 221 864 127 Q901 111 1085 90 Q1270 66 1311 66 L1327 -16 Q1171 -8 1024 -4 Q877 -4 705 0 Q565 -4 446 -4 Q324 -8 160 -16 Z " />
<glyph glyph-name="M" unicode="M" horiz-adv-x="4346" d="M504 2802 L479 2879 Q598 2875 713 2875 Q827 2871 1081 2863 Q1352 2871 1462 2875 Q1573 2875 1688 2879 L1671 2802 Q1630 2798 1507 2769 Q1397 2744 1368 2744 Q1364 2744 1360 2744 Q1516 2269 1810 1487 Q2097 721 2114 721 Q2114 721 2114 721 Q2142 766 2494 1610 Q2847 2449 2945 2736 Q2834 2781 2662 2793 L2646 2879 Q2798 2875 2929 2875 Q3060 2871 3265 2863 Q3486 2871 3576 2875 Q3666 2875 3768 2879 L3752 2793 Q3752 2793 3748 2793 Q3711 2793 3408 2744 Q3482 2400 3641 1585 Q3797 770 3953 127 Q4006 106 4289 66 L4313 -25 Q4215 -16 3633 0 Q3133 -16 2970 -16 L2986 66 Q3080 82 3215 94 Q3346 106 3432 119 Q3432 180 3391 393 Q3351 606 3211 1339 Q3072 2073 3015 2417 L2998 2417 L1962 -41 Q1839 279 1638 799 Q1434 1315 1323 1618 Q1208 1917 1024 2425 L1008 2425 Q672 627 664 209 Q680 127 680 127 Q754 106 1040 66 L1057 -16 Q979 -16 430 0 Q311 -4 209 -4 Q106 -8 -8 -16 L25 66 Q45 74 147 90 Q246 102 311 119 Q356 250 594 1278 Q827 2302 913 2744 Q762 2744 504 2802 Z " />
<glyph glyph-name="less" unicode="&#x3c;" d="" />
<glyph glyph-name="greater" unicode="&#x3e;" d="" />
<glyph glyph-name="question" unicode="&#x3f;" horiz-adv-x="2494" d="M848 328 Q963 328 1303 393 Q1303 324 1327 -8 Q897 -57 848 -74 L848 328 Z M377 2089 Q446 2576 446 3191 L446 3330 L545 3297 L561 2839 Q840 2929 1184 2929 Q1413 2929 1638 2875 Q1860 2822 2019 2687 Q2175 2548 2175 2318 Q2175 2048 1933 1786 Q1692 1524 1311 1360 Q1286 1356 1257 1241 Q1229 1126 1200 970.5 Q1171 815 1143 680 L967 639 Q954 766 930 922 Q901 1077 872 1286 Q1671 1614 1671 2175 Q1671 2335 1602 2482 Q1532 2626 1405 2712 Q1274 2793 1110 2793 Q909 2793 741 2683 Q569 2568 528 2400 Q520 2359 512 2318 Q504 2273 500 2249 Q492 2220 471 2114 L377 2089 Z " />
</font>
</svg>
